<svg xmlns="http://www.w3.org/2000/svg" xmlns:xlink="http://www.w3.org/1999/xlink" id="Camada_1" x="0px" y="0px" viewBox="0 0 16 16" style="enable-background:new 0 0 16 16;" xml:space="preserve"><style type="text/css">	.st0{fill:#E30613;stroke:#E30613;stroke-width:0.5;stroke-miterlimit:10;}	.st1{stroke:#000000;stroke-width:0.5;stroke-miterlimit:10;}</style><g>	<path class="st0" d="M3.78,8.95c0.07-0.07,0.13-0.13,0.2-0.2C3.05,8.65,2.39,7.91,2.39,6.9c0-0.99,0.8-1.86,1.86-1.86  c0.82,0,1.48,0.49,2.07,1.05c0.05,0.05,0.11,0.1,0.16,0.15c0.29-0.29,0.58-0.57,0.86-0.86C7.32,5.36,7.3,5.34,7.27,5.32  c-0.84-0.8-1.8-1.54-3.01-1.54c-1.86,0-3.21,1.46-3.21,3.12c0,1.38,0.73,2.47,1.86,2.91C3.21,9.52,3.5,9.24,3.78,8.95z"></path>	<path class="st0" d="M11.9,3.78c-1.27,0-2.22,0.66-3.06,1.44c0,0,0,0,0,0C8.28,5.78,7.72,6.34,7.16,6.9c0,0,0,0,0,0  C6.88,7.18,6.59,7.49,6.27,7.77c-0.75,0.75-1.5,1.5-2.25,2.25c0.03,0,0.05,0,0.08,0c1.3,0,2.26-0.69,3.12-1.49l0.09-0.09  c0,0,0-0.01,0.01-0.01l0.46-0.46c0,0,0-0.01,0.01-0.01C8.14,7.6,8.5,7.25,8.86,6.89c0.31-0.32,0.65-0.67,1.02-0.98L12,3.78  C11.97,3.78,11.94,3.78,11.9,3.78z"></path>	<path class="st1" d="M13.07,3.99l-0.7,0.7C12.25,4.81,12.12,4.93,12,5.05c0.94,0.09,1.61,0.84,1.61,1.85c0,0.99-0.8,1.86-1.86,1.86  c-0.9,0-1.61-0.6-2.25-1.21C9.22,7.83,8.94,8.12,8.65,8.41c0.86,0.83,1.85,1.62,3.09,1.62c1.86,0,3.21-1.46,3.21-3.12  C14.94,5.52,14.21,4.43,13.07,3.99z"></path></g><g></g><g></g><g></g><g></g><g></g><g></g></svg>